<svg version="1.1" xmlns="http://www.w3.org/2000/svg" viewBox="0 0 270 270" width="60" height="60">
<path fill="#212121" d="M187.3,107.8h-9.67h-9.77h-7.44h-9.39h-8.41h-7.11l4.7-8.16l5.64-9.8L153,77.42l4.03-7l4.4-7.64l3.67-6.37l3.4-5.9c1.8-3.12,3.87-6.03,6.16-8.71c1.63-1.9,3.37-3.68,5.22-5.33c2.35-2.1,4.86-4.01,7.51-5.69c2.36-1.5,4.84-2.83,7.4-3.97c3.62-1.61,7.42-2.85,11.34-3.67c3.83-0.81,7.77-1.23,11.77-1.23h9.82h12.91h11.15h13.12l-3.1,5.79l-4.17,7.8l-3.71,6.93l-4.47,8.35l-4.95,9.26l-5.2,9.72L233.9,79.9c-1.9,3.51-4.16,6.75-6.71,9.69c-2.56,2.93-5.41,5.56-8.5,7.85c-2.82,2.08-5.84,3.88-9.01,5.37c-3.7,1.73-7.6,3.04-11.64,3.89C194.54,107.42,190.95,107.8,187.3,107.8z"/>
<path fill="#212121" d="M139.2,247.4L139.2,247.4l-4.2-6.74l-4.64-7.44l-5.75-9.22l-5.95-9.54l-6.06-9.71l-6.75-10.82l-6.26-10.05l-6.23-10l-5.68-9.12l-5.89-9.45l-6.2-9.94l-5.46-8.76l-6.45-10.35l-4.31-6.92l-4.79-7.69l-6.23-10l-9.28-14.89L28.58,69.95l-4.34-6.97l-3.59-5.75l-5.06-8.11l-3.91-6.27L7.3,35.81L3.8,30.2l0,0c5.44-0.12,10.61-0.35,15.55-0.6c5.63-0.28,10.96-0.59,16.03-0.79c6.24-0.25,12.09-0.34,17.64-0.03c4.74,0.26,9.26,0.81,13.62,1.8c4.11,0.93,8.08,2.25,11.96,4.09c3.61,1.71,7.14,3.87,10.62,6.57c4.65,3.61,9.23,8.2,13.81,14c1.99,2.52,3.98,5.26,5.98,8.26l8.83,14.31l7.77,12.6l8.61,13.96l9.76,15.82l7.7,12.48l5.63,9.13c3.59,5.8,6.21,11.61,7.94,17.46c1.17,3.95,1.93,7.92,2.32,11.91c0.41,4.22,0.39,8.46-0.01,12.74c-0.37,3.9-1.06,7.82-2.05,11.78c-0.87,3.46-1.96,6.95-3.27,10.46c-1.96,5.27-4.4,10.61-7.26,16.02c-2.8,5.3-6.01,10.68-9.58,16.15C143.43,241.31,141.36,244.34,139.2,247.4z"/>
</svg>
